<svg xmlns="http://www.w3.org/2000/svg" viewBox="0 0 1400 900" preserveAspectRatio="xMidYMid slice">
  <defs>
    <radialGradient id="bg" cx="55%" cy="45%" r="75%">
      <stop offset="0%" stop-color="hsl(340,55%,93%)"/>
      <stop offset="50%" stop-color="hsl(35,55%,92%)"/>
      <stop offset="100%" stop-color="hsl(35,40%,96%)"/>
    </radialGradient>
    <radialGradient id="glow" cx="50%" cy="50%" r="50%">
      <stop offset="0%" stop-color="hsl(340,60%,90%)" stop-opacity="0.6"/>
      <stop offset="100%" stop-color="transparent"/>
    </radialGradient>
  </defs>

  <rect width="1400" height="900" fill="url(#bg)"/>
  <ellipse cx="900" cy="480" rx="380" ry="340" fill="url(#glow)"/>

  <!-- Main stems -->
  <g stroke="hsl(130,38%,32%)" stroke-width="4" fill="none" opacity="0.75" stroke-linecap="round">
    <path d="M900,900 Q885,740 840,580"/>
    <path d="M900,900 Q895,740 890,570"/>
    <path d="M900,900 Q910,740 940,575"/>
    <path d="M900,900 Q870,750 800,620"/>
    <path d="M900,900 Q925,750 985,625"/>
    <path d="M900,900 Q855,760 760,650"/>
    <path d="M900,900 Q940,760 1020,650"/>
    <path d="M900,900 Q840,770 720,670"/>
    <path d="M900,900 Q960,770 1060,670"/>
    <path d="M900,900 Q875,780 700,700"/>
  </g>

  <!-- Leaves -->
  <g fill="hsl(130,42%,36%)" opacity="0.78">
    <ellipse cx="862" cy="750" rx="28" ry="10" transform="rotate(-40 862 750)"/>
    <ellipse cx="938" cy="748" rx="28" ry="10" transform="rotate(40 938 748)"/>
    <ellipse cx="828" cy="698" rx="24" ry="9" transform="rotate(-55 828 698)"/>
    <ellipse cx="962" cy="695" rx="24" ry="9" transform="rotate(55 962 695)"/>
    <ellipse cx="795" cy="665" rx="22" ry="8" transform="rotate(-65 795 665)"/>
    <ellipse cx="990" cy="660" rx="22" ry="8" transform="rotate(65 990 660)"/>
    <ellipse cx="758" cy="645" rx="20" ry="7" transform="rotate(-70 758 645)"/>
    <ellipse cx="1020" cy="640" rx="20" ry="7" transform="rotate(70 1020 640)"/>
  </g>

  <!-- BIG peony left — dark crimson -->
  <g transform="translate(830,520)">
    <g fill="hsl(345,62%,48%)" opacity="0.82">
      <ellipse cx="0" cy="-72" rx="22" ry="36" transform="rotate(0)"/>
      <ellipse cx="0" cy="-72" rx="22" ry="36" transform="rotate(40)"/>
      <ellipse cx="0" cy="-72" rx="22" ry="36" transform="rotate(80)"/>
      <ellipse cx="0" cy="-72" rx="22" ry="36" transform="rotate(120)"/>
      <ellipse cx="0" cy="-72" rx="22" ry="36" transform="rotate(160)"/>
      <ellipse cx="0" cy="-72" rx="22" ry="36" transform="rotate(200)"/>
      <ellipse cx="0" cy="-72" rx="22" ry="36" transform="rotate(240)"/>
      <ellipse cx="0" cy="-72" rx="22" ry="36" transform="rotate(280)"/>
      <ellipse cx="0" cy="-72" rx="22" ry="36" transform="rotate(320)"/>
    </g>
    <g fill="hsl(345,65%,55%)" opacity="0.88">
      <ellipse cx="0" cy="-55" rx="18" ry="28" transform="rotate(20)"/>
      <ellipse cx="0" cy="-55" rx="18" ry="28" transform="rotate(60)"/>
      <ellipse cx="0" cy="-55" rx="18" ry="28" transform="rotate(100)"/>
      <ellipse cx="0" cy="-55" rx="18" ry="28" transform="rotate(140)"/>
      <ellipse cx="0" cy="-55" rx="18" ry="28" transform="rotate(180)"/>
      <ellipse cx="0" cy="-55" rx="18" ry="28" transform="rotate(220)"/>
      <ellipse cx="0" cy="-55" rx="18" ry="28" transform="rotate(260)"/>
      <ellipse cx="0" cy="-55" rx="18" ry="28" transform="rotate(300)"/>
      <ellipse cx="0" cy="-55" rx="18" ry="28" transform="rotate(340)"/>
    </g>
    <circle r="48" fill="hsl(345,62%,50%)" opacity="0.9"/>
    <circle r="34" fill="hsl(345,65%,58%)"/>
    <circle r="22" fill="hsl(345,68%,65%)"/>
    <circle r="12" fill="hsl(345,70%,72%)"/>
    <circle r="6" fill="hsl(345,72%,80%)"/>
  </g>

  <!-- BIG peony center — light pink -->
  <g transform="translate(958,500)">
    <g fill="hsl(355,60%,72%)" opacity="0.82">
      <ellipse cx="0" cy="-68" rx="20" ry="34" transform="rotate(0)"/>
      <ellipse cx="0" cy="-68" rx="20" ry="34" transform="rotate(40)"/>
      <ellipse cx="0" cy="-68" rx="20" ry="34" transform="rotate(80)"/>
      <ellipse cx="0" cy="-68" rx="20" ry="34" transform="rotate(120)"/>
      <ellipse cx="0" cy="-68" rx="20" ry="34" transform="rotate(160)"/>
      <ellipse cx="0" cy="-68" rx="20" ry="34" transform="rotate(200)"/>
      <ellipse cx="0" cy="-68" rx="20" ry="34" transform="rotate(240)"/>
      <ellipse cx="0" cy="-68" rx="20" ry="34" transform="rotate(280)"/>
      <ellipse cx="0" cy="-68" rx="20" ry="34" transform="rotate(320)"/>
    </g>
    <g fill="hsl(355,62%,78%)" opacity="0.9">
      <ellipse cx="0" cy="-50" rx="16" ry="26" transform="rotate(20)"/>
      <ellipse cx="0" cy="-50" rx="16" ry="26" transform="rotate(60)"/>
      <ellipse cx="0" cy="-50" rx="16" ry="26" transform="rotate(100)"/>
      <ellipse cx="0" cy="-50" rx="16" ry="26" transform="rotate(140)"/>
      <ellipse cx="0" cy="-50" rx="16" ry="26" transform="rotate(180)"/>
      <ellipse cx="0" cy="-50" rx="16" ry="26" transform="rotate(220)"/>
      <ellipse cx="0" cy="-50" rx="16" ry="26" transform="rotate(260)"/>
      <ellipse cx="0" cy="-50" rx="16" ry="26" transform="rotate(300)"/>
    </g>
    <circle r="44" fill="hsl(355,60%,74%)" opacity="0.9"/>
    <circle r="30" fill="hsl(355,62%,80%)"/>
    <circle r="18" fill="hsl(355,64%,86%)"/>
    <circle r="9" fill="hsl(355,66%,90%)"/>
  </g>

  <!-- Medium rose top-left -->
  <g transform="translate(780,458)">
    <g fill="hsl(10,72%,58%)" opacity="0.85">
      <ellipse cx="0" cy="-46" rx="14" ry="24" transform="rotate(0)"/>
      <ellipse cx="0" cy="-46" rx="14" ry="24" transform="rotate(51)"/>
      <ellipse cx="0" cy="-46" rx="14" ry="24" transform="rotate(102)"/>
      <ellipse cx="0" cy="-46" rx="14" ry="24" transform="rotate(153)"/>
      <ellipse cx="0" cy="-46" rx="14" ry="24" transform="rotate(204)"/>
      <ellipse cx="0" cy="-46" rx="14" ry="24" transform="rotate(255)"/>
      <ellipse cx="0" cy="-46" rx="14" ry="24" transform="rotate(306)"/>
    </g>
    <circle r="30" fill="hsl(10,72%,60%)" opacity="0.92"/>
    <circle r="20" fill="hsl(10,74%,67%)"/>
    <circle r="12" fill="hsl(10,76%,74%)"/>
    <circle r="6" fill="hsl(10,78%,80%)"/>
  </g>

  <!-- Medium rose right -->
  <g transform="translate(1030,462)">
    <g fill="hsl(350,65%,62%)" opacity="0.85">
      <ellipse cx="0" cy="-44" rx="13" ry="22" transform="rotate(0)"/>
      <ellipse cx="0" cy="-44" rx="13" ry="22" transform="rotate(51)"/>
      <ellipse cx="0" cy="-44" rx="13" ry="22" transform="rotate(102)"/>
      <ellipse cx="0" cy="-44" rx="13" ry="22" transform="rotate(153)"/>
      <ellipse cx="0" cy="-44" rx="13" ry="22" transform="rotate(204)"/>
      <ellipse cx="0" cy="-44" rx="13" ry="22" transform="rotate(255)"/>
      <ellipse cx="0" cy="-44" rx="13" ry="22" transform="rotate(306)"/>
    </g>
    <circle r="28" fill="hsl(350,65%,64%)" opacity="0.92"/>
    <circle r="18" fill="hsl(350,67%,71%)"/>
    <circle r="10" fill="hsl(350,70%,78%)"/>
  </g>

  <!-- Lilac cluster left -->
  <g transform="translate(748,490)" opacity="0.9">
    <circle cx="-14" cy="-40" r="10" fill="hsl(272,48%,66%)"/>
    <circle cx="2"   cy="-52" r="9"  fill="hsl(270,50%,68%)"/>
    <circle cx="18"  cy="-42" r="10" fill="hsl(275,46%,64%)"/>
    <circle cx="26"  cy="-26" r="9"  fill="hsl(270,50%,66%)"/>
    <circle cx="-22" cy="-24" r="9"  fill="hsl(272,48%,65%)"/>
    <circle cx="-8"  cy="-14" r="8"  fill="hsl(268,50%,67%)"/>
    <circle cx="12"  cy="-10" r="9"  fill="hsl(271,49%,65%)"/>
    <circle cx="-28" cy="-8"  r="8"  fill="hsl(273,48%,64%)"/>
    <circle cx="28"  cy="-8"  r="8"  fill="hsl(270,50%,66%)"/>
    <circle cx="0"   cy="4"   r="8"  fill="hsl(272,49%,65%)"/>
  </g>

  <!-- Lilac cluster right -->
  <g transform="translate(1065,475)" opacity="0.9">
    <circle cx="12"  cy="-38" r="10" fill="hsl(272,48%,66%)"/>
    <circle cx="-4"  cy="-50" r="9"  fill="hsl(270,50%,68%)"/>
    <circle cx="-20" cy="-40" r="10" fill="hsl(275,46%,64%)"/>
    <circle cx="-28" cy="-24" r="9"  fill="hsl(270,50%,66%)"/>
    <circle cx="20"  cy="-22" r="9"  fill="hsl(272,48%,65%)"/>
    <circle cx="6"   cy="-12" r="8"  fill="hsl(268,50%,67%)"/>
    <circle cx="-12" cy="-8"  r="9"  fill="hsl(271,49%,65%)"/>
    <circle cx="24"  cy="-6"  r="8"  fill="hsl(273,48%,64%)"/>
    <circle cx="-26" cy="-4"  r="8"  fill="hsl(270,50%,66%)"/>
    <circle cx="0"   cy="6"   r="8"  fill="hsl(272,49%,65%)"/>
  </g>

  <!-- Yellow center flower top -->
  <g transform="translate(898,430)">
    <g fill="hsl(42,88%,58%)" opacity="0.88">
      <ellipse cx="0" cy="-38" rx="12" ry="22" transform="rotate(0)"/>
      <ellipse cx="0" cy="-38" rx="12" ry="22" transform="rotate(45)"/>
      <ellipse cx="0" cy="-38" rx="12" ry="22" transform="rotate(90)"/>
      <ellipse cx="0" cy="-38" rx="12" ry="22" transform="rotate(135)"/>
      <ellipse cx="0" cy="-38" rx="12" ry="22" transform="rotate(180)"/>
      <ellipse cx="0" cy="-38" rx="12" ry="22" transform="rotate(225)"/>
      <ellipse cx="0" cy="-38" rx="12" ry="22" transform="rotate(270)"/>
      <ellipse cx="0" cy="-38" rx="12" ry="22" transform="rotate(315)"/>
    </g>
    <circle r="24" fill="hsl(42,88%,60%)"/>
    <circle r="15" fill="hsl(42,90%,68%)"/>
    <circle r="8"  fill="hsl(42,92%,76%)"/>
  </g>

  <!-- White blossoms scattered -->
  <g opacity="0.85">
    <g transform="translate(712,600)">
      <g fill="hsl(0,0%,98%)">
        <ellipse cx="0" cy="-20" rx="8" ry="14" transform="rotate(0)"/>
        <ellipse cx="0" cy="-20" rx="8" ry="14" transform="rotate(72)"/>
        <ellipse cx="0" cy="-20" rx="8" ry="14" transform="rotate(144)"/>
        <ellipse cx="0" cy="-20" rx="8" ry="14" transform="rotate(216)"/>
        <ellipse cx="0" cy="-20" rx="8" ry="14" transform="rotate(288)"/>
      </g>
      <circle r="10" fill="hsl(50,70%,88%)"/>
    </g>
    <g transform="translate(1100,580)">
      <g fill="hsl(0,0%,98%)">
        <ellipse cx="0" cy="-18" rx="7" ry="12" transform="rotate(0)"/>
        <ellipse cx="0" cy="-18" rx="7" ry="12" transform="rotate(72)"/>
        <ellipse cx="0" cy="-18" rx="7" ry="12" transform="rotate(144)"/>
        <ellipse cx="0" cy="-18" rx="7" ry="12" transform="rotate(216)"/>
        <ellipse cx="0" cy="-18" rx="7" ry="12" transform="rotate(288)"/>
      </g>
      <circle r="9" fill="hsl(50,70%,88%)"/>
    </g>
    <g transform="translate(870,395)">
      <g fill="hsl(0,0%,98%)">
        <ellipse cx="0" cy="-16" rx="6" ry="11" transform="rotate(0)"/>
        <ellipse cx="0" cy="-16" rx="6" ry="11" transform="rotate(72)"/>
        <ellipse cx="0" cy="-16" rx="6" ry="11" transform="rotate(144)"/>
        <ellipse cx="0" cy="-16" rx="6" ry="11" transform="rotate(216)"/>
        <ellipse cx="0" cy="-16" rx="6" ry="11" transform="rotate(288)"/>
      </g>
      <circle r="8" fill="hsl(50,70%,88%)"/>
    </g>
    <g transform="translate(960,390)">
      <g fill="hsl(0,0%,98%)">
        <ellipse cx="0" cy="-15" rx="6" ry="10" transform="rotate(0)"/>
        <ellipse cx="0" cy="-15" rx="6" ry="10" transform="rotate(72)"/>
        <ellipse cx="0" cy="-15" rx="6" ry="10" transform="rotate(144)"/>
        <ellipse cx="0" cy="-15" rx="6" ry="10" transform="rotate(216)"/>
        <ellipse cx="0" cy="-15" rx="6" ry="10" transform="rotate(288)"/>
      </g>
      <circle r="7" fill="hsl(50,70%,88%)"/>
    </g>
  </g>

  <!-- Ribbon at base -->
  <path d="M855,900 Q875,875 900,882 Q925,890 945,875 Q925,905 900,898 Q875,910 855,900Z"
        fill="hsl(340,42%,78%)" opacity="0.65"/>
  <path d="M855,900 Q830,918 818,906 Q840,886 855,900Z"
        fill="hsl(340,42%,78%)" opacity="0.55"/>
  <path d="M945,875 Q968,892 960,908 Q948,892 945,875Z"
        fill="hsl(340,42%,78%)" opacity="0.55"/>

  <!-- Soft vignette edges -->
  <radialGradient id="vig" cx="50%" cy="50%" r="70%">
    <stop offset="55%" stop-color="transparent"/>
    <stop offset="100%" stop-color="hsl(35,38%,90%)" stop-opacity="0.6"/>
  </radialGradient>
  <rect width="1400" height="900" fill="url(#vig)"/>
</svg>
